# Blender v2.92.0 OBJ File: ''
# www.blender.org
mtllib TestCloth2.mtl
o TestCloth_Cube.001
v -0.500000 -0.500000 0.000000
v -0.500000 0.500000 0.000000
v 0.000000 0.500000 0.000000
v 0.000000 -0.500000 0.000000
v 0.500000 -0.500000 0.000000
v 0.500000 0.500000 0.000000
v 0.500000 0.000000 0.000000
v -0.500000 0.000000 0.000000
v 0.000000 0.000000 0.000000
vt 0.500000 0.750000
vt 0.625000 0.750000
vt 0.625000 0.875000
vt 0.500000 0.875000
vt 0.375000 0.875000
vt 0.500000 1.000000
vt 0.375000 1.000000
vt 0.625000 1.000000
vt 0.375000 0.750000
vn 0.0000 0.0000 1.0000
usemtl None
s off
f 7/1/1 6/2/1 3/3/1 9/4/1
f 4/5/1 9/4/1 8/6/1 1/7/1
f 9/4/1 3/3/1 2/8/1 8/6/1
f 5/9/1 7/1/1 9/4/1 4/5/1
